<svg width="24" height="24" viewBox="0 0 24 24" xmlns="http://www.w3.org/2000/svg">
<path d="m15.4 19.25c0-.414.336-.75.75-.75h5.1c.414 0 .75.336.75.75s-.336.75-.75.75h-5.1c-.414 0-.75-.336-.75-.75zm-1.4-14.25c0-.53-.47-1-1-1h-10c-.53 0-1 .47-1 1v14c0 .53.47 1 1 1h10c.53 0 1-.47 1-1zm1.4 10.625c0-.414.336-.75.75-.75h5.1c.414 0 .75.336.75.75s-.336.75-.75.75h-5.1c-.414 0-.75-.336-.75-.75zm0-3.625c0-.414.336-.75.75-.75h5.1c.414 0 .75.336.75.75s-.336.75-.75.75h-5.1c-.414 0-.75-.336-.75-.75zm0-3.625c0-.414.336-.75.75-.75h5.1c.414 0 .75.336.75.75s-.336.75-.75.75h-5.1c-.414 0-.75-.336-.75-.75zm0-3.625c0-.414.336-.75.75-.75h5.1c.414 0 .75.336.75.75s-.336.75-.75.75h-5.1c-.414 0-.75-.336-.75-.75z"
      fill-rule="nonzero"/>
</svg>
